HIERARCHY
ROOT Hips
{
	OFFSET 0.000000 83.214638 0.000000
	CHANNELS 6 Xposition Yposition Zposition Xrotation Yrotation Zrotation
	JOINT Pelvis
	{
		OFFSET 0.000000 0.000000 0.000000
		CHANNELS 3 Xrotation Yrotation Zrotation
		JOINT LeftUpLeg
		{
			OFFSET 8.479700 -4.795502 -0.379100
			CHANNELS 3 Xrotation Yrotation Zrotation
			JOINT LeftLeg
			{
				OFFSET 0.024144 -32.555107 0.112900
				CHANNELS 3 Xrotation Yrotation Zrotation
				JOINT LeftFoot
				{
					OFFSET -0.024144 -32.638630 -3.012600
					CHANNELS 3 Xrotation Yrotation Zrotation
					JOINT LeftToeBase
					{
						OFFSET 0.970200 -13.225400 11.864200
						CHANNELS 3 Xrotation Yrotation Zrotation
						End Site
						{
							OFFSET 0.000000 12.319262 0.000000
						}
					}
					JOINT LFootTongue
					{
						OFFSET 1.142400 -1.059800 6.665200
						CHANNELS 3 Xrotation Yrotation Zrotation
						End Site
						{
							OFFSET 0.000000 12.319262 0.000000
						}
					}
				}
				JOINT LeftPantLeg
				{
					OFFSET 0.918482 -16.533964 -2.284700
					CHANNELS 3 Xrotation Yrotation Zrotation
					End Site
					{
						OFFSET 0.350399 24.744368 0.000000
					}
				}
			}
		}
		JOINT RightUpLeg
		{
			OFFSET -8.479700 -4.795502 -0.379100
			CHANNELS 3 Xrotation Yrotation Zrotation
			JOINT RightLeg
			{
				OFFSET -0.023144 -32.555092 0.112900
				CHANNELS 3 Xrotation Yrotation Zrotation
				JOINT RightFoot
				{
					OFFSET 0.023144 -32.638641 -3.012700
					CHANNELS 3 Xrotation Yrotation Zrotation
					JOINT RightToeBase
					{
						OFFSET -0.970200 -13.225400 11.864200
						CHANNELS 3 Xrotation Yrotation Zrotation
						End Site
						{
							OFFSET 0.000000 12.319244 0.000000
						}
					}
					JOINT RFootTongue
					{
						OFFSET -1.142200 -1.059800 6.665200
						CHANNELS 3 Xrotation Yrotation Zrotation
						End Site
						{
							OFFSET 0.000000 12.319243 0.000000
						}
					}
				}
				JOINT RightPantLeg
				{
					OFFSET -0.919482 -16.533978 -2.284800
					CHANNELS 3 Xrotation Yrotation Zrotation
					End Site
					{
						OFFSET -0.350400 24.744419 0.000000
					}
				}
			}
		}
	}
	JOINT Spine
	{
		OFFSET 0.000000 7.722000 1.166200
		CHANNELS 3 Xrotation Yrotation Zrotation
		JOINT Spine1
		{
			OFFSET 0.000000 12.024101 0.248800
			CHANNELS 3 Xrotation Yrotation Zrotation
			JOINT Spine2
			{
				OFFSET 0.000000 11.502998 -0.491200
				CHANNELS 3 Xrotation Yrotation Zrotation
				JOINT Neck
				{
					OFFSET 0.000000 18.430702 -3.123100
					CHANNELS 3 Xrotation Yrotation Zrotation
					JOINT Head
					{
						OFFSET 0.000000 9.051102 1.034000
						CHANNELS 3 Xrotation Yrotation Zrotation
						JOINT HairB
						{
							OFFSET 0.208400 24.786102 24.822300
							CHANNELS 3 Xrotation Yrotation Zrotation
							End Site
							{
								OFFSET 0.000000 32.263779 0.000000
							}
						}
						JOINT HairA
						{
							OFFSET -7.081100 24.428299 23.196600
							CHANNELS 3 Xrotation Yrotation Zrotation
							End Site
							{
								OFFSET 0.000000 32.263779 0.000000
							}
						}
						JOINT Hat
						{
							OFFSET 16.728800 15.048294 -15.439601
							CHANNELS 3 Xrotation Yrotation Zrotation
							End Site
							{
								OFFSET 0.000000 32.263779 0.000000
							}
						}
					}
				}
				JOINT LeftShoulder
				{
					OFFSET 6.197800 13.665199 -4.064700
					CHANNELS 3 Xrotation Yrotation Zrotation
					JOINT LeftArm
					{
						OFFSET 7.778100 -0.187103 -1.709300
						CHANNELS 3 Xrotation Yrotation Zrotation
						JOINT LeftForeArm
						{
							OFFSET 22.049376 0.000000 0.000000
							CHANNELS 3 Xrotation Yrotation Zrotation
							JOINT LeftHand
							{
								OFFSET 23.009392 0.000000 0.000000
								CHANNELS 3 Xrotation Yrotation Zrotation
								JOINT LeftHandThumb1
								{
									OFFSET 3.507191 -2.063065 3.133727
									CHANNELS 3 Xrotation Yrotation Zrotation
									JOINT LeftHandThumb2
									{
										OFFSET 3.101337 -1.790558 1.790558
										CHANNELS 3 Xrotation Yrotation Zrotation
										JOINT LeftHandThumb3
										{
											OFFSET 3.058640 -1.765907 1.765906
											CHANNELS 3 Xrotation Yrotation Zrotation
											End Site
											{
												OFFSET -0.415260 3.926476 -0.049563
											}
										}
									}
								}
								JOINT LeftHandIndex1
								{
									OFFSET 11.334419 -0.901459 3.706815
									CHANNELS 3 Xrotation Yrotation Zrotation
									JOINT LeftHandIndex2
									{
										OFFSET 3.283112 0.000000 0.000000
										CHANNELS 3 Xrotation Yrotation Zrotation
										JOINT LeftHandIndex3
										{
											OFFSET 3.323853 0.000000 0.000000
											CHANNELS 3 Xrotation Yrotation Zrotation
											End Site
											{
												OFFSET -1.135597 3.097809 0.402452
											}
										}
									}
								}
								JOINT LeftHandMiddle1
								{
									OFFSET 11.335861 0.000000 0.000000
									CHANNELS 3 Xrotation Yrotation Zrotation
									JOINT LeftHandMiddle2
									{
										OFFSET 3.410492 0.000000 0.000000
										CHANNELS 3 Xrotation Yrotation Zrotation
										JOINT LeftHandMiddle3
										{
											OFFSET 3.312172 0.000000 0.000000
											CHANNELS 3 Xrotation Yrotation Zrotation
											End Site
											{
												OFFSET -1.150200 3.080154 0.400270
											}
										}
									}
								}
								JOINT LeftHandRing1
								{
									OFFSET 11.514786 -0.013176 -3.003090
									CHANNELS 3 Xrotation Yrotation Zrotation
									JOINT LeftHandRing2
									{
										OFFSET 3.053307 0.000000 0.000000
										CHANNELS 3 Xrotation Yrotation Zrotation
										JOINT LeftHandRing3
										{
											OFFSET 3.295807 0.000000 0.000000
											CHANNELS 3 Xrotation Yrotation Zrotation
											End Site
											{
												OFFSET -1.281006 3.013344 0.375733
											}
										}
									}
								}
								JOINT LeftHandPinky1
								{
									OFFSET 10.518692 -0.960396 -5.730441
									CHANNELS 3 Xrotation Yrotation Zrotation
									JOINT LeftHandPinky2
									{
										OFFSET 2.861649 0.000000 0.000000
										CHANNELS 3 Xrotation Yrotation Zrotation
										JOINT LeftHandPinky3
										{
											OFFSET 2.863380 0.000000 0.000000
											CHANNELS 3 Xrotation Yrotation Zrotation
											End Site
											{
												OFFSET -0.843597 2.711159 0.369971
											}
										}
									}
								}
							}
							JOINT LSleeve
							{
								OFFSET 6.676277 -0.344902 -1.011730
								CHANNELS 3 Xrotation Yrotation Zrotation
								End Site
								{
									OFFSET 0.000000 14.885353 0.000000
								}
							}
						}
					}
				}
				JOINT RightShoulder
				{
					OFFSET -6.197800 13.665199 -4.064700
					CHANNELS 3 Xrotation Yrotation Zrotation
					JOINT RightArm
					{
						OFFSET -7.778100 -0.187103 -1.709300
						CHANNELS 3 Xrotation Yrotation Zrotation
						JOINT RightForeArm
						{
							OFFSET -22.049376 0.000000 0.000000
							CHANNELS 3 Xrotation Yrotation Zrotation
							JOINT RightHand
							{
								OFFSET -23.009392 0.000000 0.000000
								CHANNELS 3 Xrotation Yrotation Zrotation
								JOINT RightHandThumb1
								{
									OFFSET -3.507191 -2.063065 3.133727
									CHANNELS 3 Xrotation Yrotation Zrotation
									JOINT RightHandThumb2
									{
										OFFSET -3.101337 -1.790558 1.790558
										CHANNELS 3 Xrotation Yrotation Zrotation
										JOINT RightHandThumb3
										{
											OFFSET -3.058640 -1.765907 1.765906
											CHANNELS 3 Xrotation Yrotation Zrotation
											End Site
											{
												OFFSET 0.415260 3.926476 -0.049563
											}
										}
									}
								}
								JOINT RightHandIndex1
								{
									OFFSET -11.334419 -0.901459 3.706815
									CHANNELS 3 Xrotation Yrotation Zrotation
									JOINT RightHandIndex2
									{
										OFFSET -3.283112 0.000000 0.000000
										CHANNELS 3 Xrotation Yrotation Zrotation
										JOINT RightHandIndex3
										{
											OFFSET -3.323853 0.000000 0.000000
											CHANNELS 3 Xrotation Yrotation Zrotation
											End Site
											{
												OFFSET 1.135597 3.097809 0.402452
											}
										}
									}
								}
								JOINT RightHandMiddle1
								{
									OFFSET -11.335861 0.000000 0.000000
									CHANNELS 3 Xrotation Yrotation Zrotation
									JOINT RightHandMiddle2
									{
										OFFSET -3.410492 0.000000 0.000000
										CHANNELS 3 Xrotation Yrotation Zrotation
										JOINT RightHandMiddle3
										{
											OFFSET -3.312172 0.000000 0.000000
											CHANNELS 3 Xrotation Yrotation Zrotation
											End Site
											{
												OFFSET 1.150200 3.080154 0.400270
											}
										}
									}
								}
								JOINT RightHandRing1
								{
									OFFSET -11.514786 -0.013176 -3.003090
									CHANNELS 3 Xrotation Yrotation Zrotation
									JOINT RightHandRing2
									{
										OFFSET -3.053307 0.000000 0.000000
										CHANNELS 3 Xrotation Yrotation Zrotation
										JOINT RightHandRing3
										{
											OFFSET -3.295807 0.000000 0.000000
											CHANNELS 3 Xrotation Yrotation Zrotation
											End Site
											{
												OFFSET 1.281006 3.013344 0.375733
											}
										}
									}
								}
								JOINT RightHandPinky1
								{
									OFFSET -10.518692 -0.960396 -5.730441
									CHANNELS 3 Xrotation Yrotation Zrotation
									JOINT RightHandPinky2
									{
										OFFSET -2.861649 0.000000 0.000000
										CHANNELS 3 Xrotation Yrotation Zrotation
										JOINT RightHandPinky3
										{
											OFFSET -2.863380 0.000000 0.000000
											CHANNELS 3 Xrotation Yrotation Zrotation
											End Site
											{
												OFFSET 0.843597 2.711159 0.369971
											}
										}
									}
								}
							}
							JOINT RSleeve
							{
								OFFSET -6.676277 -0.344902 -1.011730
								CHANNELS 3 Xrotation Yrotation Zrotation
								End Site
								{
									OFFSET 0.000000 14.885353 0.000000
								}
							}
						}
					}
				}
				JOINT Backpack
				{
					OFFSET 0.000000 -2.471497 36.677502
					CHANNELS 3 Xrotation Yrotation Zrotation
					End Site
					{
						OFFSET 0.000000 20.427315 0.000000
					}
				}
				JOINT Hood
				{
					OFFSET 0.000000 18.754097 -10.431000
					CHANNELS 3 Xrotation Yrotation Zrotation
					JOINT Hood1
					{
						OFFSET 0.000000 -5.011002 -7.685901
						CHANNELS 3 Xrotation Yrotation Zrotation
						End Site
						{
							OFFSET 0.000000 9.175140 0.000000
						}
					}
				}
				JOINT LHoodieString
				{
					OFFSET 5.250500 16.397697 3.089900
					CHANNELS 3 Xrotation Yrotation Zrotation
					JOINT LHoodieString1
					{
						OFFSET 0.257700 -6.364304 3.694600
						CHANNELS 3 Xrotation Yrotation Zrotation
						JOINT LHoodieString2
						{
							OFFSET 0.000000 -9.643799 2.679100
							CHANNELS 3 Xrotation Yrotation Zrotation
							End Site
							{
								OFFSET 0.000000 10.009018 0.000000
							}
						}
					}
				}
				JOINT RHoodieString
				{
					OFFSET -5.250500 16.397697 3.089900
					CHANNELS 3 Xrotation Yrotation Zrotation
					JOINT RHoodieString1
					{
						OFFSET -0.257700 -6.364304 3.694600
						CHANNELS 3 Xrotation Yrotation Zrotation
						JOINT RHoodieString2
						{
							OFFSET 0.000000 -9.643799 2.679100
							CHANNELS 3 Xrotation Yrotation Zrotation
							End Site
							{
								OFFSET 0.000000 10.009018 0.000000
							}
						}
					}
				}
			}
			JOINT LBackpack_Strap
			{
				OFFSET 15.223200 -7.719803 -6.610900
				CHANNELS 3 Xrotation Yrotation Zrotation
				End Site
				{
					OFFSET 0.000000 16.040596 0.000000
				}
			}
			JOINT RBackpack_Strap
			{
				OFFSET -15.223000 -7.719803 -6.610900
				CHANNELS 3 Xrotation Yrotation Zrotation
				End Site
				{
					OFFSET 0.000000 16.040596 0.000000
				}
			}
		}
	}
	JOINT BoyFacialAnim_Joint
	{
		OFFSET 1.000000 -82.208099 -1.550900
		CHANNELS 3 Xrotation Yrotation Zrotation
		End Site
		{
			OFFSET 0.000000 30.012791 0.000000
		}
	}
}
MOTION
Frames: 5
Frame Time: 0.033333
-0.322740 74.608315 0.157051 8.981822 -63.741409 7.384028 0.000000 0.000000 -0.000000 -60.775897 -37.634885 0.130132 90.410388 8.317559 -34.100351 3.275925 -8.288659 -7.508535 0.000001 0.000001 -0.000001 0.000001 0.000001 -0.000001 0.000003 0.000002 -0.000002 -33.863911 -2.736469 3.952245 60.082558 -8.340169 -3.318665 -23.808602 2.869990 -0.232809 0.000000 -0.000000 0.000000 0.000000 -0.000000 0.000000 0.000000 0.000000 -0.000001 10.099293 2.158709 7.629671 16.154519 1.074454 -7.884766 -14.519731 0.010268 0.163122 -1.249636 25.589946 1.317238 3.790721 31.765898 -8.389537 -0.000000 0.000000 -0.000001 -0.000000 0.000000 -0.000001 -0.000000 0.000000 -0.000001 -7.823741 -8.781023 -6.855509 2.750739 12.596298 -42.688587 27.325814 -74.837331 31.290449 1.969298 -14.014139 4.856039 -4.212051 -7.549035 8.222272 3.475963 20.079023 -1.638788 -0.000000 0.000002 -0.000000 13.104270 -1.389774 11.525781 -0.167619 0.303408 -31.105641 -0.000001 -0.000002 -0.000002 8.703789 0.253621 -0.436330 0.231491 0.661192 -29.901868 0.000003 -0.000002 0.000005 6.345084 3.553071 -15.334622 0.047089 0.322457 -30.125458 -0.000000 0.000001 -0.000000 -5.600618 7.947252 -13.412933 0.224393 0.276594 -46.588386 -0.000001 0.000002 0.000000 -0.000000 -0.000003 0.000004 -6.682535 18.122032 3.238357 -69.032155 -13.905329 -24.405062 44.981368 121.819388 -27.722947 -7.962440 8.966140 -15.322384 -2.894428 9.661480 -10.609757 2.504720 -17.499368 2.621179 0.000004 -0.000000 0.000001 19.365451 11.464480 -14.237287 -0.118681 -0.322691 18.035587 -0.000002 0.000000 0.000005 4.548150 1.890125 -5.332166 0.349147 -0.461258 26.890328 0.000001 0.000000 0.000002 -6.900843 -10.887209 4.759350 0.111915 -0.089203 26.155865 0.000002 0.000001 0.000004 -19.521370 -20.358164 5.449691 0.223736 -0.085768 36.844530 -0.000000 0.000001 -0.000001 0.000001 0.000002 -0.000000 -0.000000 0.000000 -0.000001 -0.000000 0.000000 -0.000001 -0.000000 0.000000 -0.000001 -0.000000 0.000000 -0.000001 -0.000000 0.000000 -0.000001 0.000001 -0.000002 -0.000000 -0.000000 0.000000 -0.000001 -0.000000 0.000000 -0.000001 0.000001 -0.000002 -0.000000 0.000001 -0.000002 0.000000 0.000001 -0.000002 0.000000 0.000000 0.000000 -0.000000 
-11.954059 75.093277 0.739893 18.483795 -65.032000 18.651344 -0.000000 0.000000 -0.000000 -66.060087 -29.359476 -2.027142 80.381115 18.398615 -29.005645 9.092212 -7.238675 -15.384738 0.000001 -0.000002 -0.000000 0.000001 -0.000002 -0.000000 0.000000 0.000004 -0.000000 -26.639927 -4.687231 3.656456 57.357627 -4.770269 -2.999998 -26.948496 6.394180 -4.383945 0.000000 0.000001 -0.000000 0.000000 0.000001 -0.000000 0.000001 0.000000 0.000000 8.878702 3.382114 5.620985 15.833961 2.203933 -9.183877 -15.037215 1.265541 -1.282925 -3.930983 24.630656 2.026061 4.081630 31.022477 -6.961048 0.000001 0.000000 0.000000 0.000001 0.000000 0.000000 0.000001 0.000000 0.000000 -7.983319 -8.375961 -6.994480 4.573237 15.193669 -43.087938 31.476927 -76.726158 35.611852 0.573432 -17.076873 3.360951 -4.212048 -7.549035 8.222273 3.979856 21.531961 -1.113862 0.000000 -0.000001 -0.000001 13.084553 -1.474555 9.902487 -0.165775 0.308111 -32.638240 -0.000001 -0.000001 -0.000002 8.704553 0.269041 -2.381176 0.235574 0.666197 -31.551157 -0.000001 -0.000002 -0.000000 6.436336 3.625900 -17.472000 0.053175 0.331972 -31.962007 0.000001 -0.000001 -0.000004 -5.417579 8.248524 -15.405490 0.232939 0.281237 -49.193953 0.000001 0.000002 -0.000003 -0.000000 0.000000 0.000004 -4.464588 18.925358 -4.453943 -73.270410 -18.538223 -23.119842 46.688588 120.079452 -28.950030 -8.050041 12.470243 -11.037336 -4.146833 10.255490 -9.588593 3.428847 -19.923129 1.764421 0.000001 0.000001 -0.000000 18.044412 10.320838 -13.547189 -0.117093 -0.284379 23.451492 -0.000001 0.000000 0.000005 4.796155 0.296496 -6.289978 0.354011 -0.487650 29.833047 0.000005 -0.000003 -0.000001 -5.265181 -11.595126 3.187019 0.119050 -0.121903 30.244843 -0.000001 -0.000001 0.000004 -16.318155 -21.117299 5.613515 0.226626 -0.099092 41.397958 -0.000001 0.000000 0.000000 0.000001 -0.000003 -0.000001 -0.000000 0.000002 0.000000 -0.000000 0.000002 0.000000 -0.000000 0.000002 0.000000 -0.000000 0.000002 0.000000 -0.000000 0.000002 0.000000 0.000001 -0.000000 -0.000000 -0.000000 0.000002 0.000000 -0.000000 0.000002 0.000000 0.000001 -0.000000 -0.000000 -0.000000 -0.000000 0.000001 -0.000000 -0.000000 0.000001 -0.000000 0.000000 -0.000000 
-24.118107 75.957428 0.802543 27.830261 -65.240772 29.916130 0.000000 0.000000 0.000000 -67.011771 -20.424991 -3.573521 63.513615 24.073625 -23.699710 1.766418 -2.133433 -17.025828 -0.000000 -0.000003 0.000001 -0.000000 -0.000003 0.000001 0.000000 -0.000000 0.000000 -17.225459 -6.575057 2.884429 48.623014 0.869958 -2.456864 -21.823650 12.363074 -10.639772 0.000001 -0.000002 0.000000 0.000001 -0.000002 0.000000 -0.000002 0.000000 0.000000 7.848062 4.392561 2.764794 15.549578 3.308310 -10.132388 -15.460084 2.447120 -2.254592 -6.501114 23.745047 3.418734 4.825230 29.936289 -6.564423 0.000001 -0.000000 0.000000 0.000001 -0.000000 0.000000 0.000001 -0.000000 0.000000 -8.339956 -7.468230 -7.037283 5.193186 17.129440 -42.808515 32.727610 -77.165435 36.901986 -1.947760 -20.589839 0.484396 -4.212052 -7.549034 8.222274 4.522261 23.130109 -0.546879 0.000001 -0.000001 -0.000003 13.067976 -1.508534 8.103198 -0.163946 0.311064 -34.398322 0.000001 0.000001 -0.000002 8.705890 0.283688 -4.553367 0.241215 0.674809 -33.595757 0.000001 -0.000002 -0.000002 6.480745 3.655521 -19.830650 0.060627 0.343252 -34.203306 -0.000001 0.000003 -0.000003 -5.319960 8.341466 -17.852672 0.242473 0.288392 -51.844790 -0.000002 0.000004 -0.000001 -0.000001 -0.000001 0.000000 -3.517030 19.914704 -7.535311 -76.761457 -18.460630 -23.682803 48.344714 118.528412 -30.194750 -8.242902 14.752660 -7.575316 -5.490177 10.863752 -8.459878 4.391120 -22.532944 0.877935 0.000001 -0.000001 -0.000000 16.676844 9.090030 -12.875904 -0.125117 -0.244666 29.214888 0.000003 -0.000003 0.000001 5.004542 -1.407747 -7.290334 0.362242 -0.515056 32.978896 0.000001 -0.000001 -0.000000 -3.572269 -12.468963 1.555085 0.130467 -0.155353 34.623455 0.000001 0.000000 0.000004 -12.868928 -21.973820 5.905347 0.231450 -0.112570 46.273954 -0.000001 -0.000001 -0.000002 0.000000 -0.000000 -0.000005 0.000002 0.000001 0.000001 0.000002 0.000001 0.000001 0.000002 0.000001 0.000001 0.000002 0.000001 0.000001 0.000002 0.000001 -0.000000 0.000000 -0.000000 -0.000000 0.000002 0.000001 0.000001 0.000002 0.000001 -0.000000 0.000000 -0.000000 -0.000000 0.000002 -0.000000 0.000002 0.000002 -0.000000 0.000002 0.000000 0.000000 0.000000 
-35.475475 76.567490 0.765422 32.402851 -64.265899 34.952069 -0.000001 0.000001 -0.000000 -63.386095 -13.067944 -4.310346 40.555280 29.358428 -16.787553 -1.034940 0.739265 -20.648417 -0.000001 0.000002 0.000001 -0.000001 0.000002 -0.000002 -0.000002 0.000002 0.000000 -6.985982 -9.691945 4.817884 36.407961 3.822280 -1.958773 -6.708848 13.535622 -16.528235 0.000002 0.000001 0.000000 0.000002 0.000001 0.000000 -0.000000 -0.000000 0.000000 7.007462 5.079028 0.390185 15.257360 4.045088 -10.370308 -15.748354 3.219892 -2.336719 -7.714406 22.748145 4.487928 4.815787 28.755506 -5.951528 -0.000000 -0.000000 -0.000001 -0.000000 -0.000000 -0.000001 -0.000000 -0.000000 -0.000001 -8.825340 -6.186626 -7.215407 5.116192 17.710530 -42.358412 25.141819 -78.540209 29.517619 -1.955189 -22.466589 -3.022521 -4.212051 -7.549030 8.222277 5.069713 24.779896 0.027684 -0.000003 -0.000001 0.000001 13.058736 -1.505084 6.217888 -0.162407 0.312714 -36.283020 0.000001 -0.000002 -0.000000 8.707535 0.296846 -6.784174 0.248118 0.685453 -35.824831 0.000002 -0.000001 -0.000002 6.485812 3.658883 -22.209839 0.068945 0.354941 -36.598923 0.000002 -0.000001 -0.000000 -5.313301 8.302209 -20.435735 0.252388 0.296556 -54.348502 0.000003 -0.000003 -0.000001 -0.000002 0.000003 0.000002 -3.355752 20.647341 -8.419374 -78.812446 -16.643718 -24.286848 50.336585 117.056779 -31.891885 -8.506412 15.925855 -5.314233 -6.817662 11.434478 -7.311237 5.315296 -25.121530 0.032837 -0.000001 0.000002 -0.000001 15.470949 7.965886 -12.322628 -0.141502 -0.209834 34.630698 -0.000001 0.000001 0.000005 5.148676 -3.015589 -8.214798 0.373075 -0.540545 36.023213 0.000000 0.000003 0.000000 -1.992093 -13.424235 0.027742 0.145411 -0.186654 38.944212 0.000000 -0.000000 0.000004 -9.442032 -22.852867 6.318443 0.238194 -0.125288 51.149979 0.000003 0.000000 0.000000 -0.000002 0.000000 -0.000002 0.000000 0.000004 0.000000 0.000000 0.000004 0.000000 0.000000 0.000004 0.000000 0.000000 0.000004 0.000000 0.000000 0.000004 0.000000 0.000000 0.000004 -0.000001 0.000000 0.000004 0.000000 0.000000 0.000004 0.000000 0.000000 0.000004 -0.000001 -0.000000 -0.000002 0.000001 -0.000000 -0.000002 0.000001 -0.000001 0.000001 -0.000000 
-46.824066 76.754852 0.708558 32.221622 -62.681718 34.083624 -0.000000 0.000002 -0.000000 -56.404976 -7.863698 -5.686037 15.650356 29.999226 -9.039662 -0.045919 -0.748953 -22.044649 -0.000002 -0.000001 0.000001 -0.000002 -0.000001 0.000001 -0.000000 -0.000004 0.000000 0.857605 -12.451329 6.345249 26.234335 7.327781 -1.422940 18.569102 13.012407 -4.646947 -0.000002 0.000003 0.000001 -0.000002 0.000003 0.000001 -0.000000 0.000002 -0.000000 6.432409 5.429250 -1.292736 15.167328 4.508758 -9.795881 -15.839905 3.573759 -1.520184 -7.622927 21.805369 4.987348 4.693511 27.323412 -5.823810 -0.000000 0.000000 -0.000000 -0.000000 0.000000 -0.000000 -0.000000 0.000000 -0.000000 -9.317279 -4.864412 -7.333076 4.887725 16.839548 -42.572730 37.792512 -76.596788 41.877922 -6.609419 -23.067241 -6.035256 -4.212054 -7.549032 8.222276 5.591304 26.386540 0.577440 0.000002 -0.000001 -0.000003 13.058809 -1.477442 4.336449 -0.161125 0.313490 -38.189705 -0.000002 0.000001 -0.000003 8.709213 0.308244 -8.904845 0.255835 0.696512 -38.027799 0.000001 -0.000000 -0.000002 6.462322 3.649975 -24.409197 0.077244 0.365770 -38.898187 -0.000003 -0.000001 -0.000004 -5.381760 8.200023 -22.838462 0.261784 0.304387 -56.512804 -0.000002 0.000002 0.000000 -0.000000 0.000001 0.000001 -3.628471 20.254641 -8.225945 -79.678064 -13.865234 -24.126298 46.337427 114.713300 -28.136302 -11.546834 15.435000 -5.086739 -8.021725 11.925484 -6.241310 6.132762 -27.477762 -0.709012 -0.000000 -0.000000 -0.000002 14.622598 7.153641 -11.956314 -0.160676 -0.184405 39.003635 -0.000003 -0.000001 0.000003 5.228713 -4.317614 -8.951702 0.384716 -0.561625 38.661347 0.000001 0.000001 -0.000000 -0.671268 -14.335191 -1.252020 0.161901 -0.213082 42.859430 0.000001 -0.000001 0.000000 -6.313263 -23.669368 6.805684 0.245948 -0.136162 55.703410 0.000002 0.000002 0.000000 -0.000001 0.000001 -0.000001 -0.000000 -0.000001 -0.000000 -0.000000 -0.000001 -0.000000 -0.000000 -0.000001 -0.000000 -0.000000 -0.000001 -0.000000 -0.000000 -0.000001 0.000000 -0.000000 -0.000002 0.000001 -0.000000 -0.000001 -0.000000 -0.000000 -0.000001 0.000000 -0.000000 -0.000002 0.000001 0.000001 0.000003 -0.000002 0.000001 0.000003 -0.000002 -0.000000 0.000002 -0.000000 
